<svg version="1.1" xmlns="http://www.w3.org/2000/svg" style="display: block;" viewBox="0 0 2048 2048" width="1024" height="1024">
<defs>
	<linearGradient id="Gradient1" gradientUnits="userSpaceOnUse" x1="568.394" y1="1025.4" x2="615.712" y2="1071.11">
		<stop class="stop0" offset="0" stop-opacity="1" stop-color="rgb(198,225,217)"/>
		<stop class="stop1" offset="1" stop-opacity="1" stop-color="rgb(227,241,246)"/>
	</linearGradient>
	<linearGradient id="Gradient2" gradientUnits="userSpaceOnUse" x1="994.976" y1="474.049" x2="1012.02" y2="451.254">
		<stop class="stop0" offset="0" stop-opacity="1" stop-color="rgb(0,0,0)"/>
		<stop class="stop1" offset="1" stop-opacity="1" stop-color="rgb(34,26,22)"/>
	</linearGradient>
</defs>
<path transform="translate(0,0)" fill="rgb(254,254,254)" d="M 0 0 L 2048 0 L 2048 2048 L 0 2048 L 0 0 z"/>
<path transform="translate(0,0)" fill="rgb(50,42,48)" d="M 962.231 67.3905 C 1026.89 66.9736 1112.15 99.6754 1169.05 130.069 C 1279.39 189.008 1379.57 285.643 1416.55 407.989 C 1447.99 511.993 1436 612.924 1384.85 708.174 C 1385.8 710.162 1386.76 712.179 1387.35 714.307 C 1388.51 718.516 1388.43 723.286 1386.01 727.055 C 1382.96 731.815 1378.64 733.28 1373.34 734.349 C 1366.63 750.758 1358.96 766.268 1347.22 779.729 C 1333.12 795.882 1314.65 805.724 1298.14 818.808 C 1287.45 827.28 1278.08 837.513 1267.65 846.341 C 1240.55 869.281 1211.92 888.62 1180.18 904.479 C 1179.89 909.803 1179.86 915.156 1179.73 920.487 C 1186.39 921.107 1192.66 922.872 1198.88 925.246 C 1217.36 932.302 1236.09 945.369 1244.04 964.144 C 1249.37 976.756 1246.69 987.171 1241.92 999.298 C 1253.32 1014.66 1268.02 1028.07 1280.14 1043.08 C 1314.43 1085.52 1346.26 1132.45 1371.1 1181.07 C 1398.2 1181.02 1425.27 1179.58 1452.22 1176.77 C 1545.05 1167.24 1601.88 1138.83 1659.44 1064.64 C 1665.63 1056.66 1675.55 1037.17 1684.78 1033.62 C 1687.06 1032.74 1688.99 1032.79 1691.15 1033.97 C 1701.3 1039.5 1713.74 1097.84 1717.84 1110.82 C 1725.97 1098.59 1743.9 1052.98 1749.23 1048.52 C 1753.2 1048.23 1755.74 1050.01 1758.59 1052.53 C 1770.93 1063.4 1786.2 1084.74 1795.92 1098.38 C 1853.02 1178.49 1878.83 1265.48 1883.78 1363.3 C 1890.53 1496.92 1849.11 1634.38 1758.45 1734.51 C 1692.12 1807.76 1607.04 1860.14 1517.14 1899.44 C 1485.56 1913.26 1453.43 1925.84 1420.1 1934.84 C 1392.5 1942.29 1363.08 1945.23 1334.85 1949.74 C 1250.57 1963.79 1165.57 1973.14 1080.24 1977.74 C 900.172 1986.99 719.637 1975.01 542.362 1942.07 C 511.714 1936.2 474.503 1930.49 444.983 1921.28 C 435.067 1909.23 427.71 1895.54 420.279 1881.89 C 390.672 1827.47 366.856 1764.8 361.43 1702.63 C 357.44 1701.02 353.521 1699.24 349.683 1697.3 C 319.852 1682.32 294.482 1661.33 272.738 1636.14 C 267.131 1629.64 263.191 1621.75 257.047 1615.72 C 250.082 1608.89 240.089 1604.64 232.301 1598.6 C 208.271 1579.95 178.779 1548.55 169.498 1518.87 C 158.974 1485.22 177.119 1418.12 192.079 1385.31 C 196.96 1374.61 204.515 1365.04 208.919 1354.2 C 212.547 1345.27 214.665 1335.59 217.781 1326.45 C 222.264 1313.3 228.159 1300.37 234.648 1288.08 C 247.08 1264.55 262.533 1243.72 278.981 1222.88 C 370.831 1106.48 517.216 1003.01 650.978 939.825 C 677.802 927.154 704.449 914.78 732.859 906.084 C 710.06 890.6 685.133 880.837 665.325 860.736 C 651.011 856.575 633.167 855.084 620.062 848.141 C 598.916 836.938 583.096 815.198 567.085 797.911 C 558.054 788.274 548.708 778.937 539.062 769.917 C 532.359 763.612 525.362 757.628 518.095 751.983 C 511.297 746.79 502.78 742.337 497.264 735.77 C 491.722 729.171 489.584 720.448 487.29 712.33 C 451.741 693.817 408.922 669.09 393.322 630.177 C 384.413 607.956 388.367 589.086 397.351 567.707 C 387.706 561.154 378.344 553.141 370.307 544.684 C 359.082 532.873 350.064 517.909 350.822 501.039 C 351.377 488.711 357.046 476.057 366.492 468.015 C 397.895 441.279 450.886 476.675 476.124 496.667 C 483.63 502.613 491.873 512.694 500.281 516.761 C 515.832 524.282 555.436 528.499 573.9 530.209 C 586.735 508.659 613.072 498.926 635.164 489.603 C 650.202 437.204 682.846 369.884 715.025 325.717 C 708.664 315.987 698.699 303.587 697.205 291.792 C 696.621 287.188 697.091 282.874 700.104 279.206 C 711.76 265.02 728.176 252.848 742.006 240.62 C 771.502 214.512 801.173 188.602 831.017 162.893 C 855.717 141.523 879.796 119.447 904.896 98.5453 C 913.751 91.1714 922.737 82.695 932.349 76.3609 C 941.909 70.0608 951.027 68.3266 962.231 67.3905 z"/>
<path transform="translate(0,0)" fill="rgb(203,225,219)" d="M 1226.66 1021.62 C 1232.53 1026.16 1237.94 1033.58 1242.85 1039.21 C 1272.12 1072.76 1298.42 1108.78 1321.46 1146.88 C 1339.8 1177.32 1354.48 1208.85 1368.29 1241.53 C 1456.98 1451.48 1460.7 1692.28 1406.33 1911.49 C 1375.34 1918.56 1343.36 1922.79 1311.98 1927.88 C 1113.6 1960.35 911.684 1965.28 711.952 1942.54 C 658.234 1936.58 603.588 1929.58 550.678 1918.48 C 536.402 1891.23 522.105 1864.11 510.018 1835.78 C 498.325 1808.38 488.826 1780.1 479.437 1751.85 C 497.524 1761.64 516.28 1770.12 534.345 1779.96 C 537.486 1789.94 540.399 1801.94 547.089 1810.16 C 550.439 1814.28 554.953 1816.49 559.729 1818.56 C 574.218 1824.87 590.493 1828.73 605.671 1833.27 C 632.517 1841.31 661.105 1851.85 688.987 1854.78 C 697.917 1850.68 703.523 1846.39 707.854 1837.41 C 802.003 1838.28 892.626 1824.9 980.461 1790.07 C 1115.8 1736.39 1264.26 1597.65 1322.14 1463.55 C 1346.85 1406.31 1360.86 1338.63 1337.05 1278.79 C 1339.8 1294.93 1341.3 1310.62 1340.02 1326.99 C 1330.53 1448.69 1221.22 1584.53 1131.94 1661.1 C 1005.12 1769 841.218 1823.19 675.07 1812.16 C 667.022 1794.33 660.346 1775.91 655.099 1757.07 C 680.985 1753.7 707.243 1754.39 733.239 1750.57 C 754.226 1748.36 775.489 1743.79 796.073 1739.18 C 902.255 1715.44 1002.08 1669.12 1088.76 1603.35 C 1185.04 1530.64 1298.05 1408.48 1314.84 1283.97 C 1315.81 1276.75 1318.53 1262.42 1313.84 1256.29 C 1310.23 1263.3 1310.06 1276.41 1308.34 1284.45 C 1305.91 1295.51 1303.09 1306.48 1299.87 1317.33 C 1280.36 1382.37 1241.08 1441.07 1196.81 1491.86 C 1091.01 1611.64 950.693 1695.7 795.157 1732.45 C 747.956 1743.15 701.873 1747.72 653.719 1751 C 651.394 1740.24 649.396 1729.41 647.73 1718.52 C 637.722 1652.09 640.726 1570.68 665.491 1507.61 C 669.417 1497.61 673.601 1486.87 680.028 1478.19 L 761.196 1442.82 C 754.828 1470.02 749.796 1502.78 754.292 1530.36 C 755.163 1535.7 756.347 1542.77 761.283 1545.86 C 762.984 1546.92 765.347 1547.07 767.247 1546.43 C 776.786 1543.25 775.317 1531.03 775.061 1523.06 C 773.749 1482.27 779.975 1445.24 797.156 1408.05 C 801.597 1421.39 807.866 1434.3 814.063 1446.91 C 821.764 1462.58 856.729 1520.26 874.083 1523.29 C 877.095 1523.81 877.879 1523.13 880.348 1521.65 C 882.43 1518.21 882.663 1516.28 881.113 1512.57 C 876.179 1500.73 867.339 1489.68 860.258 1479.03 C 843.613 1454.01 823.097 1420.79 816.279 1391.71 C 849.136 1408.36 886.752 1419.76 922.879 1426.82 C 933.6 1428.92 966.229 1435.65 974.493 1428.77 C 977.101 1426.6 977.944 1424.1 977.994 1420.85 C 976.044 1417.19 973.104 1415.71 969.296 1414.38 C 955.374 1409.51 932.554 1406.38 917.227 1402.7 C 889.922 1396.14 864.044 1387.44 837.738 1377.74 C 838.437 1376.74 839.151 1375.75 839.881 1374.77 C 847.402 1364.64 856.059 1355.02 864.131 1345.31 C 925.485 1271.44 1002.62 1201.54 1095.93 1172.16 C 1115.41 1166.03 1134.79 1163.2 1154.9 1160.27 C 1142.32 1156.73 1129.09 1156.38 1116.11 1156.74 C 1052.95 1158.49 997.298 1190.59 947.542 1226.7 C 937.173 1234.23 917.935 1253.27 909.988 1257.53 C 910.289 1256.25 910.655 1254.81 910.693 1253.5 C 911.082 1240.06 895.222 1221.66 886.446 1212.73 C 892.02 1201.36 897.94 1190.22 904.871 1179.62 C 927.464 1172.35 950.974 1167.95 973.729 1161.14 C 1062.85 1134.47 1164.23 1093.45 1226.66 1021.62 z"/>
<path transform="translate(0,0)" fill="rgb(254,216,88)" d="M 1682.13 1077.68 L 1683.43 1078.43 C 1688.13 1093.71 1692.56 1142.6 1686.59 1156.77 C 1681.4 1169.1 1668.08 1181.1 1659.01 1190.78 C 1616.76 1235.86 1562.01 1272.19 1505.42 1296.66 C 1488.76 1303.87 1471.58 1309.13 1454.82 1315.9 C 1471.66 1314.38 1489.14 1310.22 1505.39 1305.56 C 1591.72 1280.78 1663.39 1237.49 1716.34 1163.35 C 1730.67 1143.29 1742.55 1121.75 1754.48 1100.22 C 1761.26 1123.56 1761.66 1150.81 1762.58 1175.02 C 1767.09 1292.95 1743.5 1392.79 1688.54 1496.78 C 1694.81 1488.95 1700.52 1480.68 1706.21 1472.42 C 1776.87 1368.79 1803.68 1241.42 1780.78 1118.11 C 1789.19 1129.63 1795.47 1143.72 1801.78 1156.5 C 1829.8 1213.31 1846.35 1270.93 1851.28 1334.24 C 1858.1 1411.86 1850.44 1491.98 1823.18 1565.29 C 1769.89 1708.6 1658.15 1798.36 1525.25 1865.83 C 1496.96 1880.2 1467.24 1892.07 1438.38 1905.32 C 1445.24 1871.56 1452.46 1837.79 1457.4 1803.69 C 1479.82 1648.72 1474.68 1487.91 1430.94 1337.06 C 1418.01 1292.47 1399.48 1250.5 1384.26 1206.82 C 1398.71 1205.44 1413.27 1205.15 1427.74 1203.82 C 1506.07 1196.62 1579.85 1179.08 1639.56 1124.24 C 1655.13 1109.93 1668.63 1093.9 1682.13 1077.68 z"/>
<path transform="translate(0,0)" fill="rgb(254,216,88)" d="M 763.094 301.092 C 802.711 313.565 841.498 329.756 879.388 346.667 C 926.037 367.488 973.751 390.979 1016.68 418.7 C 1079.49 459.256 1138.59 514.229 1187.27 570.752 C 1205.26 591.643 1221.19 613.293 1236.78 636.001 C 1244.17 646.765 1252.05 657.595 1258.06 669.198 C 1258.26 669.588 1258.46 669.981 1258.65 670.373 C 1219.99 665.178 1182.82 661.818 1143.74 661.69 C 1115.34 661.543 1086.94 662.239 1058.58 663.775 C 1044.29 664.604 1028.53 667.603 1014.35 666.737 C 1007.49 666.318 1000.62 664.577 994.026 662.72 C 942.597 648.245 890.707 622.862 849.791 588.38 C 820.036 563.305 797.203 531.076 768.516 504.795 C 762.49 499.275 756.051 492.972 749.078 488.74 C 739.504 482.928 728.534 479.577 717.683 477.148 C 717.654 475.182 717.87 475.353 718.95 473.855 C 736.821 456.384 753.718 424.715 753.589 399.238 C 753.559 393.317 753.205 383.272 748.061 379.306 C 745.137 377.052 741.531 377.334 738.192 378.205 C 719.534 383.069 705.274 403.485 695.733 418.916 C 682.82 436.466 672.49 458.573 672.878 480.597 C 668.027 481.993 663.064 482.851 658.11 483.797 C 677.869 443.994 703.37 372.858 733.124 342.636 L 736.17 338.021 C 739.771 327.568 755.448 309.607 763.094 301.092 z"/>
<path transform="translate(0,0)" fill="rgb(38,36,37)" d="M 736.17 338.021 C 745.384 334.581 755.28 331.179 764.816 335.856 C 769.801 338.301 772.907 342.731 774.616 347.91 C 776.766 354.425 776.111 361.242 775.675 367.963 C 773.753 359.044 772.134 348.562 764.043 342.925 C 757.27 338.206 748.765 339.179 741.164 340.809 C 738.478 341.392 735.798 342.001 733.124 342.636 L 736.17 338.021 z"/>
<path transform="translate(0,0)" fill="rgb(50,42,48)" d="M 927.982 472.659 C 941.567 465.9 955.779 462.423 970.741 467.201 C 983.92 471.41 994.709 481.397 1000.94 493.639 C 1009.38 510.232 1009.92 530.92 1003.51 548.292 C 1003.2 549.153 1003.01 549.432 1002.61 550.154 C 996.819 569.528 980.782 590.694 963.381 601.13 C 949.79 609.281 932.793 614.33 917.112 609.996 C 904.745 606.578 895.079 598.283 888.906 587.157 C 879.16 569.593 879.299 548.146 884.677 529.265 C 891.515 505.255 906.147 484.947 927.982 472.659 z"/>
<path transform="translate(0,0)" fill="rgb(38,36,37)" d="M 927.982 472.659 C 941.567 465.9 955.779 462.423 970.741 467.201 C 983.92 471.41 994.709 481.397 1000.94 493.639 C 1009.38 510.232 1009.92 530.92 1003.51 548.292 C 1003.2 549.153 1003.01 549.432 1002.61 550.154 C 1002.27 549.448 1001.59 548.823 1001.58 548.038 C 1001.55 546.368 1002.92 543 1003.35 541.242 C 1005.4 532.89 1006.07 524.955 1004.59 516.396 C 1000.96 495.482 992.818 483.465 975.572 471.207 C 958.705 469.513 942.541 474.192 927.982 472.659 z"/>
<path transform="translate(0,0)" fill="rgb(254,254,254)" d="M 972.444 508.199 C 976.329 508.201 980.499 508.326 984.144 509.821 C 988.324 511.536 991.823 515.117 993.558 519.269 C 996.393 526.052 995.44 534.39 992.466 540.963 C 988.332 550.1 981.767 554.852 972.549 558.084 C 968.016 558.519 964.615 558.335 960.565 556.062 C 955.536 553.24 952.432 548.716 951.024 543.175 C 949.175 535.661 950.364 527.722 954.332 521.08 C 958.721 513.751 964.321 510.291 972.444 508.199 z"/>
<path transform="translate(0,0)" fill="url(#Gradient2)" d="M 968.164 436.123 C 973.558 435.461 979.158 435.399 984.548 436.225 C 999.218 438.472 1011.8 446.242 1020.35 458.376 C 1033.07 476.434 1030.17 494.954 1026.58 515.094 C 1025.83 505.6 1026 496.258 1024.72 486.771 C 1024.03 484.201 1023.37 481.625 1022.51 479.102 C 1017.85 465.262 1007.25 452.587 993.966 446.47 C 975.238 437.846 958.871 441.838 940.645 448.453 C 949.661 442.523 957.717 438.82 968.164 436.123 z"/>
<path transform="translate(0,0)" fill="rgb(254,216,88)" d="M 898.287 838.774 C 903.657 840.472 910.286 845.537 915.434 848.37 C 927.956 855.416 940.743 861.98 953.768 868.046 C 978.453 879.253 1003.94 890.199 1029.51 899.146 C 1050.47 906.48 1071.85 912.408 1093.08 918.882 C 1072.55 926.786 1051.64 929.902 1030.82 936.321 C 1050.04 936.344 1068.68 935.535 1087.6 931.749 C 1097.04 929.861 1106.23 926.879 1115.66 924.947 C 1132.29 921.537 1136.18 925.438 1152.09 914.843 C 1155.3 927.916 1158.57 941.628 1166.1 952.953 C 1108.95 997.462 1028.58 1025.43 960.597 1050.87 C 861.309 1088.02 760.17 1119.75 660.73 1156.39 C 628.591 1168.01 597.311 1180.44 566.403 1195.03 C 571.255 1167.88 576.771 1141.53 585.934 1115.47 C 606.293 1057.57 643.017 998.745 691.485 960.486 C 712.188 944.143 735.239 931.404 758.945 920.014 C 808.827 937.418 854.145 944.237 906.906 942.824 C 838.208 927.583 763.803 902.231 704.44 863.944 C 751.149 864.209 836.191 865.461 878.064 850.342 C 885.737 847.571 891.98 843.928 898.287 838.774 z"/>
<path transform="translate(0,0)" fill="rgb(242,153,59)" d="M 415.63 555.714 C 405.15 550.013 395.461 541.983 387.389 533.218 C 379.052 524.167 370.8 511.654 371.737 498.856 C 372.132 493.452 374.517 488.56 378.859 485.253 C 407.858 463.166 475.766 520.834 497.459 540.495 C 510.569 552.376 522.651 565.523 535.102 578.091 C 567.125 610.418 600.358 642.425 639.403 666.126 C 650.849 673.074 663.428 680.603 676.877 682.663 C 630.297 659.113 594.934 623.888 559.927 585.971 C 547.671 572.697 535.273 559.518 523.705 545.633 C 559.775 550.987 593.312 555.898 627.593 539.906 C 639.543 534.332 650.71 527.172 662.704 521.666 C 677.752 514.76 695.882 509.454 712.403 513.753 C 741.162 521.238 765.893 561.118 783.33 583.275 C 795.387 598.597 807.811 614.135 821.552 627.996 C 849.106 655.794 884.693 676.283 921.143 689.861 C 918.635 695.657 914.919 701.123 913.527 707.317 C 912.437 710.32 912.38 711.5 909.76 713.44 C 906.33 723.562 901.175 733.724 896.204 743.177 C 889.552 746.211 882.747 748.897 875.816 751.225 C 759.192 791.229 612.673 751.353 506.24 699.183 C 471.865 682.334 424.839 657.615 411.997 619 C 405.814 600.408 412.257 579.168 423.621 563.736 C 427.104 559.008 431.67 555.276 434.316 549.979 L 433.737 548.318 C 432.615 548.013 432.414 547.898 431.077 547.887 C 424.068 547.83 420.37 551.281 415.63 555.714 z"/>
<path transform="translate(0,0)" fill="rgb(50,42,48)" d="M 909.76 713.44 C 869.755 727.869 835.241 736.467 792.325 737.65 C 679.542 740.76 609.841 702.708 531.209 626.734 C 507.709 604.028 485.714 579.398 460.52 558.519 C 448.376 548.455 435.023 538.895 421.303 531.144 C 410.65 525.126 386.531 516.498 379.185 509.082 C 377.704 507.586 377.41 507.415 377.41 505.258 C 377.755 505.18 378.093 505.065 378.444 505.025 C 384.529 504.347 394.967 508.386 400.969 510.22 C 449.975 525.194 484.022 557.345 520.408 591.389 C 543.776 613.253 566.937 635.431 592.038 655.323 C 613.646 672.447 637.056 688.159 662.306 699.372 C 717.512 723.889 783.304 727.47 842.61 719.923 C 866.461 716.888 889.834 710.082 913.527 707.317 C 912.437 710.32 912.38 711.5 909.76 713.44 z"/>
<path transform="translate(0,0)" fill="rgb(50,42,48)" d="M 659.266 535.177 C 661.524 534.875 664.729 534.363 666.996 534.917 C 669.845 535.613 670.977 536.805 672.59 539.133 C 673.183 541.83 673.122 543.749 671.751 546.183 C 668.95 551.155 664.652 552.573 659.39 553.782 C 656.893 553.78 654.078 553.375 651.691 552.65 C 649.167 551.883 647.726 550.542 646.496 548.238 C 646.393 546.801 646.333 545.584 646.928 544.228 C 649.24 538.963 654.383 537.293 659.266 535.177 z"/>
<path transform="translate(0,0)" fill="rgb(203,225,219)" d="M 1166.85 159.029 C 1167.13 159.126 1167.41 159.212 1167.69 159.322 C 1182.49 165.285 1198.32 177.345 1211.45 186.435 C 1280.66 234.351 1341.72 297.963 1375.04 376.24 C 1414.51 466.811 1416.02 569.423 1379.24 661.116 C 1369.7 644.108 1362.46 625.263 1353.66 607.779 C 1290.46 487.509 1177.05 379.266 1063.55 306.268 C 1067.82 293.886 1074.39 282.172 1080.76 270.757 C 1103.95 229.174 1132.08 191.659 1166.85 159.029 z"/>
<path transform="translate(0,0)" fill="rgb(203,225,219)" d="M 952.38 87.8179 C 1008.65 86.6308 1101.33 118.509 1148.38 148.381 C 1117.11 179.668 1091.71 212.625 1069.82 251.137 C 1045.5 293.916 1025.42 339.571 998.292 380.748 C 984.813 374.217 971.703 366.367 958.541 359.197 C 890.417 323.667 815.537 287.441 739.457 273.264 C 764.882 246.155 796.304 223.829 824.133 199.188 L 904.943 127.228 C 920.196 113.801 935.343 98.8966 952.38 87.8179 z"/>
<path transform="translate(0,0)" fill="rgb(38,36,37)" d="M 958.772 174.855 C 970.174 175.812 982.926 183.973 993.208 188.786 C 998.504 191.265 1003.99 193.62 1006.08 199.453 C 1005.91 205.381 990.12 220.806 985.779 227.052 C 987.024 227.439 988.26 227.854 989.487 228.297 C 996.522 230.804 1010.91 235.495 1013.86 242.926 C 1014.88 245.476 1012.63 249.284 1011.43 251.518 C 1006.88 259.985 987.364 290.227 979.183 291.78 C 973.457 292.866 954.903 280.34 949.2 277.094 C 942.121 286.245 935.344 295.258 926.442 302.722 C 920.241 304.661 914.043 301.599 908.365 299.252 C 898.81 295.305 878.721 287.892 874.494 277.726 C 874.994 269.181 886.341 257.545 891.071 250.228 C 882.415 244.971 870.554 242.531 863.746 234.782 C 863.33 233.005 863.103 232.764 863.622 230.87 C 866.948 218.737 887.658 194.212 898.069 188.086 C 906.692 190.914 914.845 195.993 923.711 197.955 C 926.786 198.636 929.469 198.723 932.387 197.3 C 937.319 194.895 942.263 187.357 946.576 183.545 C 950.346 180.211 954.525 177.533 958.772 174.855 z"/>
<path transform="translate(0,0)" fill="rgb(254,254,254)" d="M 959 184.573 C 962.237 186.085 965.341 188.731 968.559 190.469 C 976.176 194.583 984.259 197.889 992.209 201.3 C 982.965 209.76 975.289 218.036 968.69 228.748 C 978.891 236.044 991.047 241.312 1002.17 247.149 C 994.664 258.178 985.907 268.659 977.78 279.263 C 966.848 274.762 957.185 267.866 945.908 264.029 C 939.752 270.446 928.449 289.949 922.742 293.02 C 910.141 287.984 897.768 282.263 885.208 277.093 C 890.825 270.362 905.2 256.775 904.555 248.03 C 900.702 239.725 884.534 234.918 876.266 231.322 C 881.948 219.451 890.366 208.66 897.989 197.977 C 905.569 202.266 921.892 212.737 930.302 212.428 C 932.417 212.351 933.723 211.902 935.518 210.764 C 940.057 207.888 953.112 190.198 959 184.573 z"/>
<path transform="translate(0,0)" fill="rgb(254,216,88)" d="M 1005.34 693.553 C 1091.91 690.14 1193.43 693.322 1278.42 708.046 C 1286.71 732.799 1292.02 757.007 1293.13 783.175 C 1286.65 791.66 1278.22 799.131 1270.54 806.517 C 1242.99 833.005 1214.74 855.82 1182.48 876.351 C 1172.44 881.877 1162.48 887.576 1152.63 893.445 C 1133.15 889.059 1113.42 887.355 1093.89 882.329 C 1030.5 866.017 971.809 839.159 912.501 812.088 C 934.047 767.38 964.99 731.79 996.097 693.636 L 1005.34 693.553 z"/>
<path transform="translate(0,0)" fill="rgb(90,186,186)" d="M 511.91 1357.04 C 516.342 1357.85 519.561 1359.1 522.559 1362.62 C 531.641 1373.26 536.562 1387.63 543.862 1399.54 C 555.504 1418.54 570.374 1435.22 585.357 1451.59 C 584.855 1452.22 584.358 1452.86 583.865 1453.5 C 541.886 1507.96 524.503 1597.61 524.503 1665.95 C 524.503 1695.46 527.64 1724.3 531.459 1753.51 C 484.509 1730.68 436.15 1704.39 402.699 1663.08 C 371.019 1623.95 357.191 1571.65 362.366 1521.89 C 366.876 1528.92 370.18 1537.05 374.031 1544.49 C 382.38 1560.63 392.81 1576.31 405.317 1589.54 C 408.245 1592.64 414.171 1599.03 418.377 1599.16 C 391.765 1562.98 374.711 1523.9 373.755 1478.48 C 373.241 1454.06 378.769 1435.1 395.899 1417.31 C 397.213 1468.88 421.757 1515.29 456.152 1552.91 C 448.336 1535.06 438.897 1517.97 431.15 1500.09 C 416.208 1465.59 402.147 1427.51 416.924 1390.73 C 419.088 1385.34 422.94 1375.98 429.009 1374.28 C 444.35 1370 476.983 1431.8 486.421 1443.09 C 501.024 1460.55 517.452 1474.56 538.157 1484.03 C 529.661 1472.55 521.905 1459.93 515.201 1447.34 C 504.401 1427.05 490.81 1396.07 498.559 1372.64 C 501.052 1365.1 505.03 1360.7 511.91 1357.04 z"/>
<path transform="translate(0,0)" fill="rgb(50,156,159)" d="M 908.28 755.91 C 915.791 746.071 938.397 690.438 938.494 679.127 C 934.261 672.88 916.305 668.405 909.14 665.244 C 885.606 654.86 862.487 640.346 842.72 623.984 C 805.017 592.775 780.784 545.812 740.904 517.24 C 716.077 499.452 685.521 499.449 657.365 508.783 C 638.5 515.037 621.536 524.012 601.79 528.163 C 596.88 529.195 590.374 530.733 585.533 529.289 L 585.146 527.686 C 588.745 522.463 595.43 519.178 601.038 516.462 C 627.138 503.819 695.798 478.62 722.277 487.681 C 759.207 497.572 794.153 545.848 820.258 573.477 C 828.434 582.007 837.124 590.03 846.279 597.501 C 886.847 630.685 934.579 654.053 984.434 669.548 L 998.562 672.807 C 990.631 684.921 979.971 695.83 970.579 706.86 C 955.936 724.056 941.568 741.804 928.816 760.464 C 915.791 779.525 901.382 815.104 888.264 829.051 C 880.224 837.599 868.762 840.274 857.683 842.548 C 797.381 854.921 719.369 854.007 658.811 843.696 C 645.712 841.466 629.482 839.1 618.252 831.514 C 605.063 822.606 594.203 808.137 583.486 796.435 C 573.723 785.776 563.382 775.342 552.821 765.464 C 539.107 752.636 522.684 743.651 508.822 731.325 C 503.405 726.968 500.275 722.038 497.008 716.039 C 523.474 728.255 550.557 739.089 578.148 748.496 C 673.373 780.314 814.542 802.619 908.28 755.91 z"/>
<path transform="translate(0,0)" fill="rgb(90,186,186)" d="M 722.277 487.681 C 759.207 497.572 794.153 545.848 820.258 573.477 C 828.434 582.007 837.124 590.03 846.279 597.501 C 886.847 630.685 934.579 654.053 984.434 669.548 L 998.562 672.807 C 990.631 684.921 979.971 695.83 970.579 706.86 C 955.936 724.056 941.568 741.804 928.816 760.464 C 915.791 779.525 901.382 815.104 888.264 829.051 C 880.224 837.599 868.762 840.274 857.683 842.548 C 797.381 854.921 719.369 854.007 658.811 843.696 C 645.712 841.466 629.482 839.1 618.252 831.514 C 605.063 822.606 594.203 808.137 583.486 796.435 C 573.723 785.776 563.382 775.342 552.821 765.464 C 539.107 752.636 522.684 743.651 508.822 731.325 L 511.135 730.298 C 526.79 731.42 566.839 766.288 578.74 778.072 C 590.786 790 601.557 804.032 615.028 814.385 C 651.799 842.649 790.945 839.612 837.736 833.492 C 849.968 831.892 864.823 829.629 874.758 821.714 C 890.409 809.246 908.03 775.655 919.381 758.225 C 929.12 743.269 939.403 728.485 949.651 713.87 C 959.557 699.744 971.065 686.835 981.611 673.194 C 955.144 667.127 929.535 657.79 905.373 645.401 C 888.007 636.683 871.224 628.014 856.16 615.563 C 822.741 587.94 797.495 551.946 765.453 523.112 C 756.054 514.661 746.22 506.707 735.991 499.281 C 733.043 497.142 724.848 492.659 723.005 489.878 C 722.578 489.235 722.52 488.413 722.277 487.681 z"/>
<path transform="translate(0,0)" fill="rgb(203,225,219)" d="M 1192.79 950.24 C 1197.72 952.408 1202.88 955.271 1207.28 958.379 C 1213.63 962.868 1219.57 968.962 1220.73 976.981 C 1222.11 986.437 1216.32 995.463 1210.68 1002.54 C 1122.49 1113.32 896.455 1161.13 763.151 1187.15 C 708.921 1197.74 655.211 1208.4 600.236 1214.72 C 589.216 1216.49 578.058 1217.28 566.898 1217.06 C 580.717 1209.96 596.602 1205.18 611.168 1199.75 C 638.357 1189.43 665.685 1179.47 693.145 1169.89 L 937.576 1084.7 C 978.566 1070.2 1019.13 1054.53 1059.22 1037.71 C 1088.23 1025.45 1117.96 1012.56 1144.91 996.131 C 1158.97 987.553 1180.7 975.11 1189.35 961.078 C 1191.24 958.009 1191.96 953.725 1192.79 950.24 z"/>
<path transform="translate(0,0)" fill="rgb(203,225,219)" d="M 1051.16 324.411 C 1182.08 414.175 1317.61 541.62 1366.03 697.279 C 1356.74 693.569 1347.5 690.116 1337.96 687.078 C 1322.08 682.092 1306.43 678.103 1290.07 675.068 C 1237.24 582.51 1166.81 501.189 1082.74 435.691 C 1061.09 418.857 1037.75 404.341 1015.44 388.426 C 1027.77 367.314 1039.31 345.791 1051.16 324.411 z"/>
<path transform="translate(0,0)" fill="rgb(90,186,186)" d="M 358.179 1677.44 C 332.314 1667.2 299.165 1635.44 282.456 1613.49 C 254.036 1576.17 234.777 1522.12 241.268 1474.91 C 247 1433.22 268.446 1389.67 302.634 1364.27 C 341.019 1335.76 390.91 1325.25 437.78 1332.12 C 427.964 1338.73 417.928 1345.3 406.733 1349.33 C 380.743 1358.7 358.493 1358.29 332.596 1372.45 C 355.934 1368.82 381.249 1368.04 404.85 1369.19 L 395.887 1395.23 C 383.422 1403.67 376.253 1412.47 367.325 1424.34 C 366.925 1428.38 365.932 1431.18 363.689 1434.58 C 358.202 1450.88 358.418 1463.89 355.291 1480.22 C 352.759 1493.45 348.314 1505.99 346.293 1519.41 C 328.884 1509.78 311.522 1500.02 293.31 1491.97 C 308.763 1508.03 327.33 1521.17 345.119 1534.5 C 342.826 1565.27 347.444 1590.46 356.454 1619.7 C 329.392 1602.75 295.089 1575.23 270.746 1553.98 C 286.811 1582.18 329.681 1618.33 354.99 1639.07 C 356.54 1651.83 356.239 1664.72 358.179 1677.44 z"/>
<path transform="translate(0,0)" fill="rgb(38,36,37)" d="M 318.171 1420.26 C 334.334 1420.03 351.39 1421.67 367.325 1424.34 C 366.925 1428.38 365.932 1431.18 363.689 1434.58 C 347.902 1430.3 333.421 1426.28 318.171 1420.26 z"/>
<path transform="translate(0,0)" fill="rgb(203,225,219)" d="M 572.282 1226.87 C 603.372 1225.67 633.787 1225.32 664.818 1222 C 697.108 1218.54 729.429 1212.29 761.701 1209.68 C 749.166 1217.8 739.262 1226.91 729.708 1238.4 C 701.296 1272.59 679.544 1313.83 659.539 1353.38 C 655.75 1360.87 649.735 1370.32 648.066 1378.51 C 647.399 1381.77 647.908 1384.24 649.891 1386.98 C 650.596 1387.96 651.505 1388.85 652.328 1389.72 C 650.22 1404.59 641.93 1418.96 638.163 1433.65 C 624.908 1434.03 611.865 1434.62 598.815 1437.21 C 585.547 1426.77 573.542 1413.72 563.848 1399.91 C 551.386 1382.14 536.73 1337.4 510.573 1340.55 C 501.325 1341.67 494.288 1348.37 488.658 1355.26 L 485.269 1352.97 C 515.432 1311.22 551.939 1275.28 572.282 1226.87 z"/>
<path transform="translate(0,0)" fill="rgb(254,254,254)" d="M 671.354 1447.24 L 672.022 1448.43 C 668.09 1455.8 663.211 1462.64 659.232 1469.99 C 650.868 1485.44 643.799 1502.55 638.303 1519.21 C 612.511 1597.44 611.331 1699.15 636.457 1777.69 C 641.526 1793.53 648.193 1808.08 655.685 1822.86 C 636.635 1818.51 618.004 1812.65 599.421 1806.65 C 588.653 1803.6 577.92 1800.43 567.226 1797.14 C 546.189 1762.07 544.371 1671 548.135 1630.08 C 552.686 1580.61 571.103 1490.35 609.479 1458.42 C 630.3 1454.66 650.817 1452.94 671.354 1447.24 z"/>
<path transform="translate(0,0)" fill="rgb(38,36,37)" d="M 587.703 1746.82 C 589.793 1747.23 591.869 1747.68 593.857 1748.46 C 600.986 1751.26 606.793 1757.46 609.6 1764.55 C 611.705 1769.87 612.339 1775.83 609.653 1781.06 C 607.278 1785.68 603.507 1787.54 598.77 1789.1 C 597.338 1789.02 595.93 1788.95 594.518 1788.68 C 587.635 1787.39 581.641 1783.19 578.066 1777.17 C 574.916 1771.93 573.7 1765.45 575.39 1759.51 C 577.35 1752.62 581.65 1749.97 587.703 1746.82 z"/>
<path transform="translate(0,0)" fill="rgb(254,254,254)" d="M 585.942 1756.71 C 589.353 1756.97 591.958 1757.31 594.863 1759.22 C 598.767 1761.79 601.783 1765.56 602.595 1770.23 C 603.334 1774.47 602.229 1776.86 599.711 1780.22 C 595.731 1780.88 592.72 1780.61 589.322 1778.4 C 585.934 1776.23 583.608 1772.75 582.908 1768.79 C 581.998 1763.83 583.039 1760.7 585.942 1756.71 z"/>
<path transform="translate(0,0)" fill="rgb(203,225,219)" d="M 818.828 1227.37 C 825.602 1226.76 832.43 1227.2 839.072 1228.66 C 857.532 1232.85 870.265 1245.87 879.942 1261.35 C 876.247 1273.57 871.937 1288.45 865.93 1299.62 C 859.988 1310.66 850.881 1320.19 843.202 1330.05 C 834.187 1341.79 825.496 1353.77 817.141 1365.98 C 812.315 1365.61 806.4 1365.06 801.819 1366.84 C 794.279 1369.78 775.292 1404.72 771.665 1412.66 C 761.03 1416.59 751.62 1421.8 741.877 1427.51 C 736.861 1430.45 731.159 1434.49 725.74 1436.41 C 722.466 1437.57 720.239 1435.72 717.237 1434.41 C 699.936 1425.8 676.781 1431.3 658.278 1433.23 C 659.999 1425.84 662.939 1404.04 668.99 1399.47 C 670.262 1399.41 671.924 1399.45 673.195 1399.16 C 675.698 1398.61 677.339 1397.5 678.645 1395.26 C 684.859 1384.64 689.627 1372.15 695.211 1361.07 C 708.818 1334.08 724.036 1306.63 742.09 1282.32 C 762.651 1254.64 783.485 1232.62 818.828 1227.37 z"/>
<path transform="translate(0,0)" fill="rgb(203,225,219)" d="M 541.844 1026.2 C 542.354 1027.57 540.84 1028.25 539.855 1029.25 C 528.181 1040.82 517.375 1053.24 507.527 1066.4 C 465.735 1122.55 437.781 1184.18 421.202 1251.98 C 385.359 1239.01 351.381 1233.46 313.144 1236.86 C 307.914 1237.33 302.446 1238.73 297.266 1239.71 C 311.133 1218.9 329.198 1200.5 346.719 1182.76 C 405.524 1123.25 470.998 1070.71 541.844 1026.2 z"/>
<path transform="translate(0,0)" fill="rgb(203,225,219)" d="M 382.73 1670.52 C 391.35 1677.51 398.384 1688.19 406.074 1696.34 C 418.204 1709.19 431.95 1720.76 445.61 1731.93 C 459.603 1795.32 487.809 1855.01 516.768 1912.66 C 497.278 1908.51 477.293 1904.19 458.228 1898.41 C 448.756 1884.59 441.374 1868.86 434.176 1853.76 C 406.27 1795.2 387.95 1735.28 382.73 1670.52 z"/>
<path transform="translate(0,0)" fill="rgb(203,225,219)" d="M 539.78 1060.93 L 540.445 1061.86 C 539.574 1068.15 532.792 1096.74 530.51 1102.18 C 527.206 1110.06 521.631 1117.49 517.245 1124.86 C 506.543 1142.85 495.704 1162.05 489.509 1182.1 C 484.708 1197.63 481.993 1213.84 489.963 1228.78 C 507.913 1241.25 527.746 1236.89 547.868 1234.14 C 519.379 1270.36 489.697 1305.37 465.823 1344.99 C 461.267 1351.95 456.529 1358.63 451.454 1365.22 C 447.73 1361.66 444.76 1358.35 441.954 1353.96 C 452.509 1347.29 457.527 1343.32 461.625 1331.32 C 460.4 1326.31 459.433 1321.6 455.911 1317.64 C 450.414 1311.45 442.467 1310.95 434.773 1310.5 C 447.386 1230.75 466.772 1176.85 508.388 1107.69 C 518.081 1091.58 530.535 1077.32 539.78 1060.93 z"/>
<path transform="translate(0,0)" fill="rgb(254,254,254)" d="M 371.223 1292.57 C 378.449 1292.02 385.808 1291.81 393.043 1292.26 C 398.886 1292.62 404.571 1293.19 408.63 1297.76 C 409.26 1300.46 409.17 1300.89 408.322 1303.55 C 387.64 1306.33 366.307 1309.03 346.397 1315.56 C 301.677 1330.23 262.596 1360.63 240.878 1402.66 C 223.243 1436.79 213.006 1480.92 218.062 1519.3 C 219.662 1531.45 223.208 1542.98 226.934 1554.6 L 229.968 1563.91 C 213.397 1548.02 192.392 1524.34 190.872 1500.4 C 187.599 1448.86 211.731 1386.29 245.526 1347.75 C 277.622 1311.15 323.594 1295.63 371.223 1292.57 z"/>
<path transform="translate(0,0)" fill="rgb(254,254,254)" d="M 821.403 1200.41 C 836.84 1200.16 852.238 1202.73 866.029 1209.95 C 887.54 1221.21 897.883 1240.51 904.794 1262.78 C 895.015 1272.34 886.132 1282.69 876.959 1292.82 C 880.894 1284.01 885.231 1275.66 890.761 1267.74 C 887.943 1253.38 879.521 1240.93 867.849 1232.2 C 851.757 1220.17 831.418 1215.77 811.702 1218.84 C 774.175 1224.69 749.064 1257.01 728.099 1285.85 C 706.632 1317.62 688.262 1352.74 672.406 1387.62 C 667.544 1384.68 662.903 1382.14 657.627 1379.98 C 678.891 1332.65 705.49 1278.98 740.342 1240.06 C 761.853 1216.04 789.158 1202.21 821.403 1200.41 z"/>
<path transform="translate(0,0)" fill="rgb(254,254,254)" d="M 1108.64 671.471 C 1180.05 670.336 1287.44 674.559 1353.41 702.795 C 1359.89 705.565 1373.4 711.022 1376.09 717.763 C 1375.85 720.643 1375.91 720.56 1373.82 722.557 C 1370.98 723.316 1368.71 722.726 1365.92 722.041 C 1354.99 719.359 1344.24 714.47 1333.44 711.083 C 1320.59 707.051 1307.46 704.582 1294.33 701.658 C 1203.65 681.128 1097.48 682.541 1004.84 684.021 L 1009.44 675.048 C 1042.47 673.103 1075.55 671.911 1108.64 671.471 z"/>
<path transform="translate(0,0)" fill="rgb(254,254,254)" d="M 908.711 820.319 C 927.312 827.247 944.627 838.858 963.056 846.587 C 1007 865.017 1052.02 882.385 1098.27 894.098 C 1114.02 898.087 1130.11 900.495 1146 903.852 C 1143.97 906.744 1141.7 909.379 1139.41 912.059 C 1095.07 922.519 944.678 854.802 902.947 830.937 L 908.711 820.319 z"/>
<path transform="translate(0,0)" fill="url(#Gradient1)" d="M 650.89 966.086 L 651.474 966.623 C 650.283 969.325 647.553 971.609 645.535 973.767 C 633.476 986.656 622.961 999.675 612.747 1014.08 C 582.418 1056.86 569.506 1096.52 553.25 1145.15 C 547.565 1134.44 562.354 1068.17 566.734 1053.91 C 586.746 988.775 594.52 996.211 650.89 966.086 z"/>
<path transform="translate(0,0)" fill="rgb(203,225,219)" d="M 323.597 1257.42 C 347.109 1255.82 376.012 1259.25 397.158 1270.2 C 364.443 1269.03 335.045 1271.78 303.769 1281.88 C 284.541 1288.82 267.807 1297.9 251.795 1310.62 C 259.179 1294.14 268.379 1280.18 279.445 1266.02 C 293.796 1261.52 308.606 1258.63 323.597 1257.42 z"/>
<path transform="translate(0,0)" fill="rgb(254,254,254)" d="M 456.147 1738.73 C 460.477 1740.65 464.328 1743.26 468.297 1745.82 C 476.843 1768.19 483.067 1791.59 491.598 1814.08 C 505.012 1849.44 521.764 1882.49 539.269 1915.95 C 536.218 1915.86 533.455 1915.54 530.461 1914.96 C 524.03 1910.22 518.824 1896.12 515.265 1888.97 C 490.961 1840.11 471.786 1790.93 456.147 1738.73 z"/>
<path transform="translate(0,0)" fill="rgb(203,225,219)" d="M 499.675 1190.06 C 506.203 1166.46 518.437 1143.62 530.378 1122.33 C 528.779 1151.45 533.229 1175.75 542.547 1203.13 C 528.934 1204.52 519.066 1204.14 507.495 1195.87 L 505.002 1194.12 L 503.027 1194.72 C 502.556 1191.92 501.907 1191.9 499.675 1190.06 z"/>
<path transform="translate(0,0)" fill="rgb(203,225,219)" d="M 1306.29 713.252 C 1321.91 716.545 1336.38 720.471 1350.65 727.766 C 1345.46 737.868 1338.76 747.25 1332.06 756.39 C 1327.15 762.666 1321.9 768.059 1315.45 772.743 C 1312.91 752.687 1309.93 733.137 1306.29 713.252 z"/>
<path transform="translate(0,0)" fill="rgb(254,254,254)" d="M 560.815 1231.76 C 561.772 1232.7 561.325 1232.04 561.565 1234.03 C 542.546 1267.78 516.594 1298.5 492.481 1328.66 C 482.196 1341.52 472.628 1354.99 462.17 1367.69 L 461.609 1367.09 C 463.078 1361.11 470.272 1353.01 473.845 1347.71 C 500.508 1307.37 529.55 1268.65 560.815 1231.76 z"/>
<path transform="translate(0,0)" fill="rgb(254,254,254)" d="M 499.675 1190.06 C 501.907 1191.9 502.556 1191.92 503.027 1194.72 C 503.049 1197.11 503.039 1199.57 503.337 1201.95 C 503.881 1206.28 505.98 1211.17 509.652 1213.75 C 519.049 1220.35 536.948 1214.5 547.427 1212.33 C 550.932 1215.82 554.898 1218.64 558.854 1221.59 C 544.454 1222.87 525.884 1226.76 511.818 1223.78 C 506.816 1222.72 502.052 1220.19 499.452 1215.62 C 494.969 1207.75 497.574 1198.24 499.675 1190.06 z"/>
<path transform="translate(0,0)" fill="rgb(254,254,254)" d="M 727.195 399.895 C 728.252 399.813 729.925 399.556 731.01 399.765 C 733.939 400.328 734.506 401.123 736.351 403.27 C 736.995 405.874 737.182 407.735 736.536 410.374 C 734.32 419.428 727.836 427.745 720.145 432.731 C 718.837 432.842 716.928 433.007 715.605 432.67 C 714.045 432.272 712.321 431.084 711.518 429.721 C 709.572 426.42 710.274 422.318 711.421 418.842 C 714.264 410.227 719.151 403.992 727.195 399.895 z"/>
<path transform="translate(0,0)" fill="rgb(203,225,219)" d="M 887.908 1183.35 L 888.427 1184.71 C 885.472 1190.69 881.378 1202.33 875.982 1206.03 C 875.329 1205.72 874.709 1205.44 874.084 1205.05 C 868.912 1201.84 864.271 1199.77 858.579 1197.61 L 844.606 1194.23 C 858.863 1189.93 873.313 1186.3 887.908 1183.35 z"/>
<path transform="translate(0,0)" fill="rgb(90,186,186)" d="M 717.04 291.286 C 727.665 290.93 738.277 292.914 748.722 294.633 C 745.499 298.436 742.032 302.05 738.653 305.714 L 728.415 315.867 C 724.646 307.676 719.925 299.856 717.04 291.286 z"/>
<path transform="translate(0,0)" fill="rgb(90,186,186)" d="M 485.269 1352.97 L 488.658 1355.26 C 481.555 1367 479.007 1379.25 476.241 1392.49 C 472.539 1388.17 469.712 1383.85 466.845 1378.96 C 471.606 1369.59 478.724 1361.16 485.269 1352.97 z"/>
</svg>